<?xml version="1.0" encoding="utf-8"?>
<!-- Generator: Adobe Illustrator 23.0.1, SVG Export Plug-In . SVG Version: 6.00 Build 0)  -->
<svg version="1.1" id="图层_1" xmlns="http://www.w3.org/2000/svg" xmlns:xlink="http://www.w3.org/1999/xlink" x="0px" y="0px"
	 viewBox="0 0 70.4 120" style="enable-background:new 0 0 70.4 120;" xml:space="preserve">
<style type="text/css">
	.st0{fill:#26342F;}
	.st1{enable-background:new    ;}
</style>
<path class="st0" d="M70.5,29.4v-0.2V29l0,0v-0.1l0,0v-0.1l0,0v-0.1l0,0v-0.1l0,0v-0.1l0,0v-0.1l0,0v-0.1l0,0V28v-0.4v-0.1l0,0v-0.1
	v-0.1V27v-0.1l0,0c-0.5-2-1.5-3.8-2.7-5.3l-0.1-0.1l0,0l-0.1-0.1l-0.1-0.1l0,0l-0.1-0.1L67,20.9c-1.9-1.9-4.2-3.1-6.8-3.6l0,0h-0.4
	l0,0h-0.1h-0.1h-0.1h-0.1h-0.1h-0.1l0,0H59h-0.1h-0.1h-0.4H54V10c0-2.7-1.1-5.3-3-7c-1.9-1.9-4.3-3-7-3H27c-2.7,0-5.3,1.1-7,3
	c-1.9,1.9-3,4.3-3,7v7.3h-4.3c-3.6,0-6.8,1.5-9,3.7C1.4,23.3,0,26.5,0,30v71.4l0,0c0,3.6,1.5,6.8,3.7,9c1.5,1.5,3.3,2.6,5.3,3.2v2.7
	c0,2.1,1.6,3.7,3.7,3.7s3.7-1.6,3.7-3.7v-2.2H54v2.2c0,2.1,1.6,3.7,3.7,3.7c2,0,3.7-1.6,3.7-3.7v-2.7c2.1-0.6,3.8-1.7,5.3-3.2
	c2.3-2.3,3.7-5.6,3.7-9V29.5L70.5,29.4z M24.6,9.8c0-0.7,0.2-1.4,0.7-1.9c0.5-0.5,1.1-0.7,1.9-0.7h16.3c0.7,0,1.4,0.2,1.9,0.7
	C45.8,8.4,46,9,46,9.8V17H24.6V9.8z M61.5,105.1c-1,1-2.3,1.6-3.8,1.6H12.8c-1.5,0-2.8-0.6-3.8-1.6c-0.9-0.9-1.5-2.1-1.6-3.5
	c1.6,0.7,3.5,1.2,5.4,1.2h44.8c2,0,3.7-0.4,5.4-1.2C63,103,62.5,104.2,61.5,105.1z M63.1,90.1c0,1.5-0.6,2.8-1.6,3.7L61.4,94
	c-1,0.9-2.2,1.5-3.7,1.5H12.8c-1.5,0-2.8-0.6-3.8-1.6c-1-1-1.6-2.3-1.6-3.7l0,0V29.9C7.4,28.4,8,27,9,26s2.3-1.6,3.8-1.6h45.1h0.2
	h0.1l0,0l0,0l0,0h0.1h0.1l0,0l0,0h0.2l0,0l0,0c1,0.2,1.9,0.6,2.6,1.2l0.1,0.1l0,0c0.7,0.7,1.2,1.7,1.5,2.7l0,0l0,0v0.1l0,0v0.1v0.1
	l0,0V29l0,0l0,0l0,0v0.1l0,0v61H63.1z"/>
<g>
	<g class="st1">
		<path class="st0" d="M16.2,71.3l-1.2-3l7.6-8.3c0.4-0.5,0.9-1,1.4-1.6c0.5-0.6,1-1.2,1.4-1.8c0.5-0.6,0.8-1.2,1.1-1.8
			c0.3-0.6,0.4-1.1,0.4-1.6c0-0.5-0.1-0.9-0.3-1.3c-0.2-0.4-0.5-0.7-1-0.9c-0.4-0.2-1-0.3-1.6-0.3c-0.6,0-1.1,0.1-1.6,0.4
			c-0.5,0.3-1,0.7-1.5,1.3c-0.5,0.6-0.9,1.3-1.3,2.2L15,52c0.5-1.4,1.3-2.7,2.2-3.8c1-1.1,2.1-2,3.4-2.6c1.3-0.6,2.7-0.9,4.1-0.9
			c1.5,0,2.9,0.4,4.1,1c1.2,0.6,2.2,1.5,2.9,2.6c0.7,1.1,1.1,2.4,1.1,3.9c0,0.5-0.1,1.1-0.2,1.6c-0.1,0.6-0.3,1.2-0.6,1.8
			c-0.2,0.6-0.6,1.2-1,1.9c-0.4,0.7-0.9,1.4-1.5,2.1s-1.2,1.5-2,2.4l-5.9,6.4L21,65.7h13v5.6H16.2z"/>
		<path class="st0" d="M45.4,71.4c-1.8,0-3.4-0.3-4.8-1c-1.4-0.7-2.6-1.6-3.5-2.8c-0.9-1.2-1.3-2.5-1.3-3.9c0-1,0.1-1.8,0.4-2.6
			c0.2-0.8,0.6-1.5,1.1-2.1c0.5-0.6,1.1-1.1,1.9-1.6c0.7-0.4,1.6-0.8,2.5-1.1l-0.4,1.5c-0.7-0.3-1.3-0.6-1.9-1
			c-0.6-0.4-1-0.8-1.4-1.4c-0.4-0.5-0.7-1.1-0.9-1.6c-0.2-0.6-0.3-1.2-0.3-1.9c0-1.4,0.4-2.6,1.2-3.7c0.8-1.1,1.8-1.9,3.1-2.5
			c1.3-0.6,2.8-0.9,4.4-0.9c1.6,0,3.1,0.3,4.4,0.9c1.3,0.6,2.4,1.4,3.2,2.5c0.8,1.1,1.2,2.3,1.2,3.7c0,0.6-0.1,1.3-0.3,1.9
			c-0.2,0.6-0.5,1.1-0.9,1.6c-0.4,0.5-0.9,0.9-1.4,1.3c-0.6,0.4-1.2,0.8-2,1.1l-0.3-1.3c0.8,0.2,1.6,0.5,2.3,0.9
			c0.7,0.4,1.3,0.9,1.9,1.5c0.5,0.6,0.9,1.3,1.2,2.1c0.3,0.8,0.4,1.6,0.4,2.6c0,1.5-0.4,2.8-1.3,4c-0.9,1.2-2,2.1-3.5,2.7
			C48.8,71.1,47.2,71.4,45.4,71.4z M45.4,66.4c0.7,0,1.3-0.1,1.9-0.4s1-0.6,1.3-1.1c0.3-0.5,0.5-1,0.5-1.6c0-0.6-0.2-1.2-0.5-1.7
			c-0.3-0.5-0.7-0.9-1.3-1.1c-0.6-0.3-1.2-0.4-1.9-0.4c-0.7,0-1.3,0.1-1.9,0.4c-0.5,0.3-1,0.7-1.3,1.1c-0.3,0.5-0.5,1-0.5,1.7
			c0,0.6,0.2,1.1,0.5,1.6c0.3,0.5,0.8,0.8,1.3,1.1C44.1,66.3,44.7,66.4,45.4,66.4z M45.4,55c0.6,0,1.1-0.1,1.6-0.4
			c0.5-0.2,0.9-0.6,1.1-1c0.3-0.4,0.4-0.9,0.4-1.4c0-0.5-0.1-1-0.4-1.4c-0.3-0.4-0.6-0.8-1.1-1c-0.5-0.2-1-0.4-1.6-0.4
			c-0.6,0-1.2,0.1-1.6,0.4c-0.5,0.2-0.9,0.6-1.1,1c-0.3,0.4-0.4,0.9-0.4,1.4c0,0.5,0.1,1,0.4,1.4c0.3,0.4,0.6,0.7,1.1,1
			C44.2,54.9,44.8,55,45.4,55z"/>
	</g>
	<g class="st1">
		<path class="st0" d="M16.2,71.3l-1.2-3l7.6-8.3c0.4-0.5,0.9-1,1.4-1.6c0.5-0.6,1-1.2,1.4-1.8c0.5-0.6,0.8-1.2,1.1-1.8
			c0.3-0.6,0.4-1.1,0.4-1.6c0-0.5-0.1-0.9-0.3-1.3c-0.2-0.4-0.5-0.7-1-0.9c-0.4-0.2-1-0.3-1.6-0.3c-0.6,0-1.1,0.1-1.6,0.4
			c-0.5,0.3-1,0.7-1.5,1.3c-0.5,0.6-0.9,1.3-1.3,2.2L15,52c0.5-1.4,1.3-2.7,2.2-3.8c1-1.1,2.1-2,3.4-2.6c1.3-0.6,2.7-0.9,4.1-0.9
			c1.5,0,2.9,0.4,4.1,1c1.2,0.6,2.2,1.5,2.9,2.6c0.7,1.1,1.1,2.4,1.1,3.9c0,0.5-0.1,1.1-0.2,1.6c-0.1,0.6-0.3,1.2-0.6,1.8
			c-0.2,0.6-0.6,1.2-1,1.9c-0.4,0.7-0.9,1.4-1.5,2.1s-1.2,1.5-2,2.4l-5.9,6.4L21,65.7h13v5.6H16.2z"/>
		<path class="st0" d="M45.4,71.4c-1.8,0-3.4-0.3-4.8-1c-1.4-0.7-2.6-1.6-3.5-2.8c-0.9-1.2-1.3-2.5-1.3-3.9c0-1,0.1-1.8,0.4-2.6
			c0.2-0.8,0.6-1.5,1.1-2.1c0.5-0.6,1.1-1.1,1.9-1.6c0.7-0.4,1.6-0.8,2.5-1.1l-0.4,1.5c-0.7-0.3-1.3-0.6-1.9-1
			c-0.6-0.4-1-0.8-1.4-1.4c-0.4-0.5-0.7-1.1-0.9-1.6c-0.2-0.6-0.3-1.2-0.3-1.9c0-1.4,0.4-2.6,1.2-3.7c0.8-1.1,1.8-1.9,3.1-2.5
			c1.3-0.6,2.8-0.9,4.4-0.9c1.6,0,3.1,0.3,4.4,0.9c1.3,0.6,2.4,1.4,3.2,2.5c0.8,1.1,1.2,2.3,1.2,3.7c0,0.6-0.1,1.3-0.3,1.9
			c-0.2,0.6-0.5,1.1-0.9,1.6c-0.4,0.5-0.9,0.9-1.4,1.3c-0.6,0.4-1.2,0.8-2,1.1l-0.3-1.3c0.8,0.2,1.6,0.5,2.3,0.9
			c0.7,0.4,1.3,0.9,1.9,1.5c0.5,0.6,0.9,1.3,1.2,2.1c0.3,0.8,0.4,1.6,0.4,2.6c0,1.5-0.4,2.8-1.3,4c-0.9,1.2-2,2.1-3.5,2.7
			C48.8,71.1,47.2,71.4,45.4,71.4z M45.4,66.4c0.7,0,1.3-0.1,1.9-0.4s1-0.6,1.3-1.1c0.3-0.5,0.5-1,0.5-1.6c0-0.6-0.2-1.2-0.5-1.7
			c-0.3-0.5-0.7-0.9-1.3-1.1c-0.6-0.3-1.2-0.4-1.9-0.4c-0.7,0-1.3,0.1-1.9,0.4c-0.5,0.3-1,0.7-1.3,1.1c-0.3,0.5-0.5,1-0.5,1.7
			c0,0.6,0.2,1.1,0.5,1.6c0.3,0.5,0.8,0.8,1.3,1.1C44.1,66.3,44.7,66.4,45.4,66.4z M45.4,55c0.6,0,1.1-0.1,1.6-0.4
			c0.5-0.2,0.9-0.6,1.1-1c0.3-0.4,0.4-0.9,0.4-1.4c0-0.5-0.1-1-0.4-1.4c-0.3-0.4-0.6-0.8-1.1-1c-0.5-0.2-1-0.4-1.6-0.4
			c-0.6,0-1.2,0.1-1.6,0.4c-0.5,0.2-0.9,0.6-1.1,1c-0.3,0.4-0.4,0.9-0.4,1.4c0,0.5,0.1,1,0.4,1.4c0.3,0.4,0.6,0.7,1.1,1
			C44.2,54.9,44.8,55,45.4,55z"/>
	</g>
</g>
</svg>
