<?xml version="1.0" encoding="utf-8"?>
<!-- Generator: Adobe Illustrator 23.0.1, SVG Export Plug-In . SVG Version: 6.00 Build 0)  -->
<svg version="1.1" id="图层_1" xmlns="http://www.w3.org/2000/svg" xmlns:xlink="http://www.w3.org/1999/xlink" x="0px" y="0px"
	 viewBox="0 0 149.2 120" style="enable-background:new 0 0 149.2 120;" xml:space="preserve">
<style type="text/css">
	.st0{fill:none;}
</style>
<title>bag co</title>
<path class="st0" d="M104,99.6H45.6v13.8c0,0.2,0,0.4,0,0.6h58.5c0-0.2,0-0.4,0-0.6V99.6z"/>
<path class="st0" d="M45.6,46.1v50.7H104V46.1H45.6z M88.4,69.9H61.2c-1.7,0-3-1.4-3-3s1.4-3,3-3h27.2c1.7,0,3,1.4,3,3
	S90.1,69.9,88.4,69.9z"/>
<path class="st0" d="M120,46.1h9.7c0.7,0,1.4,0.1,2.1,0.2c0.2,0,0.3,0.1,0.5,0.1c0.2,0,0.3,0.1,0.5,0.1c0.2,0,0.3,0.1,0.5,0.2
	c0.5,0.2,1,0.4,1.4,0.7c3.2,1.7,5.4,5.1,5.4,9v0.2l2.7,40.2h0H120"/>
<path class="st0" d="M103.5,22.6c0-6.4-8.9-16.2-20.8-16.2h-16c-11.8,0-20.8,9.8-20.8,16.2V40h57.5L103.5,22.6L103.5,22.6z"/>
<path class="st0" d="M116.2,99.6v13.8c0,0.2,0,0.4,0,0.6h16.7c5.7,0,10.3-4.6,10.3-10.2l-0.3-4.2L116.2,99.6z"/>
<path class="st0" d="M30.1,46.1h-9.9c-0.7,0-1.4,0.1-2,0.2c-0.2,0-0.4,0.1-0.6,0.1c-0.1,0-0.3,0.1-0.4,0.1c-0.5,0.1-1,0.3-1.4,0.5
	c-0.1,0.1-0.3,0.2-0.4,0.2c-0.6,0.3-1.1,0.7-1.6,1.1c-0.3,0.2-0.6,0.5-0.8,0.8c-0.3,0.3-0.5,0.5-0.7,0.8c-0.1,0.2-0.2,0.3-0.3,0.5
	c-0.1,0.2-0.2,0.3-0.3,0.5c-1,1.6-1.6,3.5-1.6,5.5v0.2L7.3,92.2l-0.1,2L7,96.8h23.1"/>
<polygon class="st0" points="33.5,96.8 33.4,96.8 33.4,46.1 "/>
<path class="st0" d="M33.4,99.6H6.7l-0.3,4.2c0.1,5.7,4.7,10.2,10.3,10.2h16.7c0-0.2,0-0.4,0-0.6V99.6z"/>
<path d="M146.1,56.3c-0.1-9-7.4-16.3-16.4-16.3h-19.1c-0.2,0-0.4,0-0.5,0c-0.2,0-0.3,0-0.5,0V22.6c0-10.1-12-22.3-26.8-22.3h-16
	C52,0.3,40,12.5,40,22.6v17.5c-0.1,0-0.3,0-0.5,0c-0.2,0-0.4,0-0.5,0H20.2c-9,0-16.3,7.3-16.4,16.3l-3.4,47.1v0.2
	c0,9.1,7.3,16.4,16.4,16.4h116.1c9.1,0,16.4-7.3,16.4-16.4v-0.2L146.1,56.3z M7,96.8l0.2-2.7l0.1-2l2.6-35.5v-0.2
	c0-2.2,0.7-4.3,1.9-5.9c0.1-0.1,0.2-0.3,0.3-0.4c0.2-0.3,0.5-0.6,0.7-0.8c0.3-0.3,0.5-0.5,0.8-0.8c0.5-0.4,1.1-0.8,1.7-1.1
	c0.1-0.1,0.3-0.2,0.5-0.2c0.4-0.2,0.9-0.4,1.4-0.6c0.1,0,0.2-0.1,0.4-0.1c0.2-0.1,0.4-0.1,0.6-0.2c0.7-0.1,1.4-0.2,2.1-0.2h13.2
	v50.7L7,96.8L7,96.8z M16.8,113.9c-5.7,0-10.3-4.6-10.3-10.2l0.3-4.1h26.7v13.8c0,0.2,0,0.4,0,0.6H16.8z M46,22.6
	c0-2.4,1.3-5.3,3.5-7.9c0.2-0.2,0.4-0.4,0.6-0.7c0.2-0.2,0.4-0.5,0.6-0.7c0.2-0.2,0.4-0.4,0.6-0.6c0.2-0.2,0.4-0.4,0.7-0.6
	c0.2-0.2,0.4-0.4,0.7-0.6c0,0,0,0,0,0c0.2-0.2,0.5-0.4,0.7-0.6c0.3-0.2,0.5-0.4,0.8-0.6c0.3-0.2,0.5-0.4,0.8-0.5
	c0.5-0.3,1.1-0.7,1.7-1c0.6-0.3,1.2-0.6,1.8-0.8c0,0,0,0,0,0c0.3-0.1,0.6-0.3,1-0.4c0.3-0.1,0.7-0.2,1-0.3c0.6-0.2,1.3-0.4,1.9-0.5
	c1.4-0.3,2.9-0.5,4.4-0.5h16c0.3,0,0.6,0,0.9,0c0.2,0,0.5,0,0.7,0c0.2,0,0.5,0,0.7,0.1c0.3,0,0.6,0.1,0.9,0.1
	c0.7,0.1,1.4,0.3,2.1,0.4c0.7,0.2,1.3,0.4,2,0.6c0.3,0.1,0.5,0.2,0.7,0.3c0,0,0,0,0,0C90.9,8,91,8,91.1,8.1c0.2,0.1,0.5,0.2,0.7,0.3
	c0.1,0,0.2,0.1,0.3,0.2c0,0,0,0,0,0c0.2,0.1,0.5,0.2,0.7,0.3c0.3,0.1,0.6,0.3,0.9,0.5c0.2,0.1,0.4,0.3,0.6,0.4c0,0,0,0,0,0
	c0.1,0,0.2,0.1,0.3,0.2c0.2,0.1,0.3,0.2,0.5,0.3c0.1,0.1,0.2,0.1,0.3,0.2c0,0,0.1,0.1,0.1,0.1c0.4,0.3,0.8,0.6,1.2,0.9
	c0.3,0.2,0.5,0.4,0.7,0.6c0.2,0.1,0.4,0.3,0.5,0.5c0,0,0.1,0,0.1,0.1c0.2,0.2,0.5,0.5,0.7,0.7c0.3,0.3,0.5,0.5,0.8,0.8c0,0,0,0,0,0
	c0.1,0.2,0.3,0.3,0.4,0.4c0.2,0.2,0.4,0.5,0.5,0.7c0.3,0.5,0.7,0.9,0.9,1.4c0,0.1,0.1,0.1,0.1,0.2c0.3,0.4,0.5,0.8,0.7,1.2v0
	c0.1,0.2,0.2,0.4,0.3,0.7c0.1,0.2,0.2,0.5,0.3,0.7c0.1,0.2,0.2,0.5,0.2,0.7c0.1,0.2,0.1,0.4,0.2,0.6c0,0.2,0.1,0.3,0.1,0.4
	c0,0,0,0,0,0c0,0.1,0,0.2,0.1,0.2c0,0,0,0.1,0,0.1c0,0.2,0.1,0.3,0.1,0.5c0,0.2,0,0.4,0,0.6v17.5H46V22.6z M45.6,46.1H104v50.7H45.6
	V46.1z M45.5,113.9c0-0.2,0-0.4,0-0.6V99.6H104v13.8c0,0.2,0,0.4,0,0.6H45.5z M129.7,46.1c0.7,0,1.4,0.1,2.1,0.2
	c0.2,0,0.3,0.1,0.5,0.1c0.2,0,0.3,0.1,0.5,0.1c0.2,0.1,0.3,0.1,0.5,0.2c0.5,0.2,1,0.4,1.4,0.6c3.2,1.8,5.3,5.2,5.3,9.1v0.2l2.7,40.2
	h-26.5V46.1H129.7z M132.8,113.9h-16.7c0-0.2,0-0.4,0-0.6V99.6h26.7l0.3,4.2C143.1,109.4,138.5,113.9,132.8,113.9z"/>
<path d="M88.4,63.8H61.2c-1.7,0-3,1.4-3,3c0,1.7,1.4,3,3,3h27.2c1.7,0,3-1.4,3-3C91.5,65.2,90.1,63.8,88.4,63.8z"/>
<path d="M33.4,96.8V46.1h6.2v67.8h-6.1c0-0.2,0-0.4,0-0.6V99.6"/>
<path d="M116.1,99.6v13.8c0,0.2,0,0.4,0,0.6h-5.7V46.1h5.7v50.7"/>
</svg>
